<svg height="256" preserveAspectRatio="xMidYMid" viewBox="0 0 256 256" width="256" xmlns="http://www.w3.org/2000/svg"><path d="m31.2763264 165.0445 68.2091166.031868-38.202714 72.052332c-55.11158956-33.645667-76.5074039-103.084867-49.8916992-161.9122031 29.1268607-64.3659007 104.9076862-92.931894 169.2735872-63.8114068l-122.7662125 122.7662119h109.3053965l-80.3824876 81.179174 33.1931486-62.625937h-79.5348125c-2.2370958-8.049721-3.377951-16.373502-3.377951-24.729151.0637349-50.1657592 40.71387-90.8222678 90.8796295-90.8860027 1.070747 0 2.122373.0701084 3.186746.0701084l11.701732-11.7208527c-4.856601-.7138311-9.76419-1.0643732-14.678153-1.0643732-57.1192395 0-103.7413371 46.4755072-103.7413371 103.6011202-.0318675 12.66413 2.2817103 25.226283 6.8260105 37.049112zm163.4099736-146.1887972c55.149831 33.6456669 76.552019 103.1231082 49.904447 161.9695642-29.145982 64.353154-104.939554 92.900027-169.292708 63.754046l121.829309-122.766213h-109.6049504l81.6189444-81.2301613-33.205895 62.6896723h79.522065c3.416192 11.49778 3.416192 24.722777 3.416192 24.722777-.063735 50.16576-40.720243 90.815895-90.886003 90.87963-1.198216 0-2.390059-.082856-3.581902-.082856l-11.58701 11.701732c5.022312.732952 10.095612 1.102615 15.168912 1.102615 12.740612.006373 25.372874-2.332699 37.259438-6.908866 53.352505-20.535393 79.955463-80.427102 59.42007-133.7796076h-68.189996z" fill="#e12826"/></svg>